<?xml version="1.0" encoding="UTF-8"?>
<svg version="1.1" xmlns="http://www.w3.org/2000/svg" width="574" height="435">
<path d="M0 0 C2.125 1.6875 2.125 1.6875 3 4 C3.0625 6.5 3.0625 6.5 2 9 C-2.12056079 12.09655238 -6.26901913 14.08675498 -11.0625 15.9375 C-11.72096924 16.19418457 -12.37943848 16.45086914 -13.05786133 16.71533203 C-15.03577588 17.48440197 -17.01720724 18.24360882 -19 19 C-20.04414062 19.40089844 -21.08828125 19.80179688 -22.1640625 20.21484375 C-24.25125651 21.01574378 -26.33849912 21.81651715 -28.42578125 22.6171875 C-51.78025871 31.65269025 -74.99380855 41.20731074 -97.76953125 51.62109375 C-101.87790432 53.4995101 -106.00446478 55.33504648 -110.13671875 57.16015625 C-127.15216989 64.67089064 -127.15216989 64.67089064 -143.68359375 73.1796875 C-147.36768589 75.20181581 -151.10737349 77.07754974 -154.875 78.9375 C-166.54519351 84.72625817 -178.05937315 90.76096804 -189.26953125 97.40234375 C-191.84128146 98.90713035 -194.43817716 100.33937624 -197.0625 101.75 C-208.45283638 107.91632144 -219.74559885 114.35827039 -230.578125 121.46484375 C-233.0251392 123.01593501 -235.52960072 124.44054116 -238.04980469 125.8684082 C-241.7609241 128.02176805 -245.37584964 130.32929727 -249 132.625 C-249.82363037 133.14553955 -250.64726074 133.6660791 -251.49584961 134.20239258 C-257.54051597 138.03765731 -263.52214983 141.95953395 -269.45507812 145.96533203 C-273.8196646 148.9098323 -273.8196646 148.9098323 -276 150 C-275.2265625 150.30292969 -274.453125 150.60585937 -273.65625 150.91796875 C-263.59817654 154.96360473 -254.19018958 158.93586157 -248.96484375 168.9921875 C-244.96808812 179.14208783 -246.18606912 191.01145457 -250.1875 200.94921875 C-255.77729603 213.54144949 -262.67829885 225.029827 -271 236 C-271.90669615 237.23569829 -272.81152642 238.47276708 -273.71484375 239.7109375 C-280.69383131 249.22593839 -288.13897352 258.20369685 -296 267 C-296.82628906 267.92683594 -297.65257812 268.85367187 -298.50390625 269.80859375 C-301.47042214 273.11561407 -304.45786309 276.40330298 -307.4453125 279.69140625 C-308.24710938 280.57699219 -309.04890625 281.46257812 -309.875 282.375 C-310.59429687 283.16648437 -311.31359375 283.95796875 -312.0546875 284.7734375 C-314.02216634 286.95173165 -314.02216634 286.95173165 -315.6328125 289.2890625 C-316.08398438 289.85367187 -316.53515625 290.41828125 -317 291 C-317.66 291 -318.32 291 -319 291 C-319.33 291.99 -319.66 292.98 -320 294 C-320.66 294 -321.32 294 -322 294 C-322.33 294.99 -322.66 295.98 -323 297 C-323.66 297 -324.32 297 -325 297 C-325.33 297.99 -325.66 298.98 -326 300 C-326.66 300 -327.32 300 -328 300 C-328.33 300.99 -328.66 301.98 -329 303 C-329.66 303 -330.32 303 -331 303 C-331.33 303.99 -331.66 304.98 -332 306 C-332.66 306 -333.32 306 -334 306 C-334.33 306.99 -334.66 307.98 -335 309 C-335.66 309 -336.32 309 -337 309 C-337.33 309.99 -337.66 310.98 -338 312 C-338.66 312 -339.32 312 -340 312 C-340.33 312.99 -340.66 313.98 -341 315 C-341.66 315 -342.32 315 -343 315 C-343.33 315.99 -343.66 316.98 -344 318 C-344.66 318 -345.32 318 -346 318 C-346 318.66 -346 319.32 -346 320 C-347.45556641 321.44750977 -347.45556641 321.44750977 -349.4765625 323.12890625 C-352.46586373 325.66961468 -355.37322583 328.25551425 -358.2109375 330.96484375 C-358.89800781 331.61904297 -359.58507812 332.27324219 -360.29296875 332.94726562 C-361.70689674 334.29885345 -363.11827064 335.6531172 -364.52734375 337.00976562 C-365.20667969 337.65494141 -365.88601563 338.30011719 -366.5859375 338.96484375 C-367.49931885 339.84064087 -367.49931885 339.84064087 -368.43115234 340.73413086 C-370 342 -370 342 -372 342 C-372 342.66 -372 343.32 -372 344 C-373.4609375 345.5078125 -373.4609375 345.5078125 -375.375 347.125 C-376.00148438 347.66382813 -376.62796875 348.20265625 -377.2734375 348.7578125 C-379 350 -379 350 -381 350 C-381.33 350.99 -381.66 351.98 -382 353 C-383.65268771 354.50114368 -385.37206686 355.92973667 -387.125 357.3125 C-390.50228559 360.00027475 -393.83498154 362.69662737 -397.0625 365.5625 C-400 368 -400 368 -402 368 C-402 368.66 -402 369.32 -402 370 C-403.31005859 371.2175293 -403.31005859 371.2175293 -405.1484375 372.57421875 C-405.8192334 373.07356934 -406.4900293 373.57291992 -407.18115234 374.08740234 C-407.90512207 374.61543457 -408.6290918 375.1434668 -409.375 375.6875 C-410.10799316 376.22842285 -410.84098633 376.7693457 -411.59619141 377.32666016 C-413.72495642 378.89263204 -415.86078823 380.44834029 -418 382 C-418.969375 382.70511719 -419.93875 383.41023438 -420.9375 384.13671875 C-426.45005321 388.0679466 -432.15783113 391.58306762 -438 395 C-439.25876953 395.77537109 -439.25876953 395.77537109 -440.54296875 396.56640625 C-448.25524532 401.06625601 -456.16605501 401.98154944 -465 401 C-469.71160959 399.75134022 -472.31282716 396.94507249 -474.8125 392.875 C-486.57767301 368.87870654 -473.40945995 334.55482414 -466 311 C-466.33 310.67 -466.66 310.34 -467 310 C-467.66644531 310.66773438 -468.33289063 311.33546875 -469.01953125 312.0234375 C-471.23925046 314.24393912 -473.46803003 316.45508883 -475.69921875 318.6640625 C-477.02869091 319.98432961 -478.35811712 321.304643 -479.6875 322.625 C-480.36361328 323.29273438 -481.03972656 323.96046875 -481.73632812 324.6484375 C-482.70795898 325.61523438 -482.70795898 325.61523438 -483.69921875 326.6015625 C-484.28533936 327.18244629 -484.87145996 327.76333008 -485.4753418 328.36181641 C-487.20250827 330.12954494 -487.20250827 330.12954494 -489 333 C-489.66 333 -490.32 333 -491 333 C-491.23976563 333.55945313 -491.47953125 334.11890625 -491.7265625 334.6953125 C-493.27350358 337.49499114 -495.18802481 339.54271084 -497.375 341.875 C-499.9655471 344.68593072 -502.40700966 347.38239185 -504.4375 350.625 C-505.2109375 351.800625 -505.2109375 351.800625 -506 353 C-506.66 353 -507.32 353 -508 353 C-508.39832031 353.85271484 -508.39832031 353.85271484 -508.8046875 354.72265625 C-513.90328955 364.4366595 -521.89053142 373.14530523 -528.53955078 381.82592773 C-529.55251221 383.14959351 -529.55251221 383.14959351 -530.5859375 384.5 C-531.49931885 385.69109375 -531.49931885 385.69109375 -532.43115234 386.90625 C-533.67432192 388.5653571 -534.85000241 390.27500362 -536 392 C-536.66 392 -537.32 392 -538 392 C-538.25910156 392.57492187 -538.51820313 393.14984375 -538.78515625 393.7421875 C-540.09884061 396.18369734 -541.60297053 398.04981183 -543.4375 400.125 C-544.03433594 400.80820312 -544.63117187 401.49140625 -545.24609375 402.1953125 C-547.79715678 404.82023704 -549.28366421 405.98507634 -553 406.0625 C-556 405 -556 405 -558.0625 401.875 C-558.97654433 398.0969501 -559.12040102 396.41672537 -557.33203125 392.9921875 C-554.97456369 389.46635625 -552.25945244 386.25582077 -549.5234375 383.01953125 C-546.94206337 379.93067335 -544.49309095 376.76963605 -542.0625 373.5625 C-537.84736664 368.02059533 -533.4396107 362.6706803 -528.93359375 357.36328125 C-526.99160092 355.16675256 -526.99160092 355.16675256 -526 353 C-525.34 353 -524.68 353 -524 353 C-523.690625 352.38125 -523.38125 351.7625 -523.0625 351.125 C-522.375 349.75 -521.6875 348.375 -521 347 C-520.34 347 -519.68 347 -519 347 C-518.5978125 346.1646875 -518.5978125 346.1646875 -518.1875 345.3125 C-516.89100504 342.78774666 -515.57523677 340.36285516 -514 338 C-513.34 338 -512.68 338 -512 338 C-511.74347656 337.2678125 -511.48695313 336.535625 -511.22265625 335.78125 C-509.94214846 332.8684016 -508.48925707 330.92065884 -506.4375 328.5 C-503.42782106 324.83580977 -500.65477367 321.11615739 -498 317.1875 C-493.27030079 310.21058156 -488.13709572 303.55407753 -483.01025391 296.86645508 C-478.18526635 290.56870127 -473.44395118 284.22029234 -468.77734375 277.8046875 C-466.72501868 274.98377156 -464.65047772 272.18035506 -462.56640625 269.3828125 C-459.01381489 264.6104885 -455.49220369 259.81668962 -452 255 C-451.50516113 254.31873047 -451.01032227 253.63746094 -450.50048828 252.93554688 C-444.07941268 244.00459731 -439.70932728 235.36397115 -436 225 C-435.0883374 222.62307466 -434.17192804 220.24796259 -433.25 217.875 C-432.86328125 216.86179688 -432.4765625 215.84859375 -432.078125 214.8046875 C-431.0744473 212.19367087 -430.04542056 209.59454375 -429 207 C-429.50861572 207.2266333 -430.01723145 207.4532666 -430.54125977 207.68676758 C-432.8814484 208.72918384 -435.22197181 209.77084638 -437.5625 210.8125 C-438.36236328 211.16892578 -439.16222656 211.52535156 -439.98632812 211.89257812 C-441.5730313 212.59849913 -443.16075173 213.30213833 -444.74951172 214.00341797 C-446.17647108 214.63531731 -447.60039744 215.27414812 -449.02001953 215.92236328 C-454.27568973 218.28105326 -458.46472233 218.84509256 -464 217 C-465.41596685 214.1680663 -465.27911447 212.14003776 -465 209 C-459.76604066 200.24765688 -450.10742552 194.27056206 -441.98828125 188.43994141 C-439.95168866 186.96501224 -437.94082765 185.45990558 -435.93359375 183.9453125 C-432.37715914 181.26940714 -428.77670168 178.66907653 -425.125 176.125 C-424.5578125 175.7228125 -423.990625 175.320625 -423.40625 174.90625 C-419.23469388 172 -419.23469388 172 -417 172 C-417 171.34 -417 170.68 -417 170 C-416.154375 169.484375 -415.30875 168.96875 -414.4375 168.4375 C-408.17482746 164.45485481 -404.21565554 157.89970226 -401.15625 151.29296875 C-399.03722733 147.09071771 -396.43884588 143.16562731 -393.94921875 139.17578125 C-392.34655039 136.56462018 -390.8324844 133.94328024 -389.375 131.25 C-386.86865789 126.639357 -383.97243187 122.32075148 -381 118 C-382.48150758 118.40826514 -383.96006525 118.82723328 -385.4375 119.25 C-386.26121094 119.48203125 -387.08492187 119.7140625 -387.93359375 119.953125 C-391.20330304 121.06940792 -394.28753719 122.41565038 -397.43237305 123.84033203 C-400.22906919 125.10345903 -403.04044026 126.32907483 -405.85546875 127.55078125 C-415.82832485 131.89493484 -425.76307309 136.22364056 -435.4375 141.203125 C-439.10402409 143.05246829 -442.80834945 144.79824752 -446.52807617 146.53710938 C-473.87365811 158.27063336 -473.87365811 158.27063336 -496 177 C-498.90335273 180.16729388 -500.74510633 181.78758248 -505.15625 182.203125 C-506.31640625 182.22632813 -506.31640625 182.22632813 -507.5 182.25 C-508.66015625 182.28867187 -508.66015625 182.28867187 -509.84375 182.328125 C-512 182 -512 182 -513.75390625 180.6953125 C-515.86197668 177.82727938 -515.41391165 175.42955371 -515 172 C-511.79627789 166.89274009 -507.10544741 164.10705038 -502.125 160.9375 C-501.24948486 160.37458252 -500.37396973 159.81166504 -499.47192383 159.23168945 C-490.38563188 153.47320265 -480.98246348 148.3430211 -471.47705078 143.31640625 C-469.25418313 142.13508333 -467.04443528 140.93373449 -464.83984375 139.71875 C-458.04473957 135.99028456 -451.15494434 132.66878936 -444.02514648 129.63232422 C-439.4852195 127.68812107 -435.07924293 125.56937585 -430.6875 123.3125 C-416.54235463 116.1002024 -401.88710978 109.86908182 -387.24609375 103.73828125 C-385.96904289 103.20092389 -384.6920243 102.66348984 -383.41503906 102.12597656 C-380.98546488 101.10375362 -378.55129696 100.09665986 -376.11230469 99.09667969 C-367.27146577 95.38873238 -362.08099282 91.91502391 -356.4375 84 C-353.54167574 79.9530727 -350.55940308 76.47337521 -347 73 C-345.55196705 71.44398074 -344.12681985 69.86861528 -342.70019531 68.29296875 C-326.27589882 50.18276965 -326.27589882 50.18276965 -315.875 47.0625 C-312.44897005 46.98802109 -310.11520694 47.58399684 -307 49 C-303.98257756 53.52613366 -304.32018591 57.69349003 -305 63 C-306.37320097 67.15309562 -308.08067038 71.07222903 -310 75 C-309.11441406 74.62488281 -308.22882813 74.24976562 -307.31640625 73.86328125 C-298.40707632 70.15695125 -289.44883894 67.21574824 -280.16162109 64.61767578 C-278.00084801 64.00024232 -275.85370106 63.34828372 -273.70703125 62.68359375 C-244.55368965 53.70105098 -244.55368965 53.70105098 -234.125 56.875 C-232 58 -232 58 -230 60 C-229.49767931 63.70461511 -229.19116076 66.38944786 -230.88671875 69.765625 C-235.63159479 75.86414436 -242.59095527 79.85287716 -249 84 C-249.66628418 84.4340918 -250.33256836 84.86818359 -251.01904297 85.31542969 C-262.23305115 92.59346426 -273.69828608 99.44336173 -285.22119141 106.21704102 C-291.89899523 110.14407612 -298.52109003 114.14416164 -305.09887695 118.2355957 C-308.66651451 120.40536063 -312.31079741 122.39935904 -315.98828125 124.375 C-326.21907595 129.8951175 -336.28899078 135.601273 -346 142 C-346.86238281 142.51691406 -347.72476563 143.03382813 -348.61328125 143.56640625 C-355.00557263 147.59190082 -358.53293588 152.15234168 -362.40625 158.62109375 C-362.9321875 159.40613281 -363.458125 160.19117188 -364 161 C-364.66 161 -365.32 161 -366 161 C-366.33 162.32 -366.66 163.64 -367 165 C-366.10023438 164.70867187 -365.20046875 164.41734375 -364.2734375 164.1171875 C-325.22644764 151.61346329 -325.22644764 151.61346329 -306.5625 150.6875 C-298.0447677 149.92750032 -291.13942827 143.4373131 -284.38623047 138.67431641 C-278.89355538 134.83818761 -273.17470624 131.40159212 -267.43896484 127.94433594 C-263.56843674 125.60149665 -259.78653429 123.22602318 -256.125 120.5625 C-250.66303365 116.63175157 -244.87495268 113.26552639 -239.09179688 109.83544922 C-233.61907982 106.58589744 -228.2014636 103.26303715 -222.81298828 99.87573242 C-215.13970953 95.05641157 -207.51926725 90.48692211 -199.30078125 86.66015625 C-196.58255121 85.29299913 -194.05193517 83.84282225 -191.4609375 82.2578125 C-185.23333076 78.47716127 -178.7892317 75.14167511 -172.3125 71.8125 C-171.68260162 71.48740448 -171.05270325 71.16230896 -170.40371704 70.82736206 C-160.0538864 65.48870578 -149.60755132 60.38178846 -139.07421875 55.4140625 C-134.67308509 53.3349542 -130.33229697 51.15541667 -126 48.9375 C-118.50497865 45.11823585 -110.80288444 41.79690173 -103.06640625 38.49975586 C-98.9425974 36.73848625 -94.85628036 34.96876823 -90.86328125 32.92578125 C-86.73886016 30.82229514 -82.49768108 29.12025711 -78.1875 27.4375 C-76.40586975 26.73403519 -74.62464083 26.02955337 -72.84375 25.32421875 C-71.42449219 24.76226807 -71.42449219 24.76226807 -69.9765625 24.18896484 C-65.81437909 22.52641291 -61.66973992 20.82212395 -57.52416992 19.11865234 C-52.32634493 16.98658189 -47.11920095 14.87777045 -41.91021729 12.77313232 C-39.90964789 11.96343132 -37.91061848 11.14999929 -35.91162109 10.33642578 C-32.42037133 8.91781609 -28.92222909 7.51741836 -25.41934204 6.12780762 C-24.07209302 5.59050889 -22.72694686 5.04790256 -21.38412476 4.49963379 C-14.18004312 1.56298135 -7.89289196 -0.92469027 0 0 Z M-324 69 C-325.67262717 70.61886415 -327.33795537 72.2452729 -329 73.875 C-329.928125 74.77992187 -330.85625 75.68484375 -331.8125 76.6171875 C-334.22542376 78.70644278 -334.22542376 78.70644278 -334 81 C-335.98 81.99 -335.98 81.99 -338 83 C-335.12694931 84.25010279 -335.12694931 84.25010279 -332.625 83.4375 C-328.22067157 81.02560586 -324.65129154 76.78874546 -323 72 C-323.33 71.01 -323.66 70.02 -324 69 Z M-266.375 74.1875 C-267.82240469 74.66301955 -269.27033155 75.13695235 -270.71875 75.609375 C-271.44191406 75.84720703 -272.16507812 76.08503906 -272.91015625 76.33007812 C-275.87637167 77.28093036 -278.87241329 78.10968404 -281.875 78.9375 C-304.97899761 84.03540819 -304.97899761 84.03540819 -323.08984375 96.796875 C-323.89582157 98.28399907 -324.68644108 99.77950851 -325.46484375 101.28125 C-327.71634911 105.2686488 -330.37653701 108.94709261 -333.05371094 112.65795898 C-335.30111095 115.54124946 -335.30111095 115.54124946 -336 119 C-331.98619107 118.31447323 -328.72825984 116.31592133 -325.25 114.3125 C-324.56752197 113.92384766 -323.88504395 113.53519531 -323.18188477 113.13476562 C-320.78347821 111.7640972 -318.39110347 110.38336913 -316 109 C-315.05817871 108.45520996 -314.11635742 107.91041992 -313.14599609 107.34912109 C-302.75588403 101.32882413 -292.38900214 95.27256239 -282.11279297 89.05957031 C-277.96472215 86.55823292 -273.77539763 84.13955554 -269.5625 81.75 C-264.62614811 78.9484382 -259.78035695 76.05942845 -255 73 C-259.06770509 71.31716769 -262.43965269 72.83927047 -266.375 74.1875 Z M-356.57470703 106.45068359 C-361.04245746 111.39686578 -364.83273751 116.8584609 -368.10546875 122.65625 C-369.71073602 125.48946399 -371.39431995 128.06430867 -373.3125 130.6875 C-377.2639328 136.23832227 -380.64928795 142.07260057 -384 148 C-380.01051344 148 -378.40082066 146.4883413 -375.125 144.25 C-374.09632813 143.55390625 -373.06765625 142.8578125 -372.0078125 142.140625 C-371.01523437 141.43421875 -370.02265625 140.7278125 -369 140 C-368.18015625 139.42894531 -367.3603125 138.85789063 -366.515625 138.26953125 C-362.96109545 135.06272742 -360.37277914 131.33990962 -357.625 127.4375 C-357.05281738 126.6340918 -356.48063477 125.83068359 -355.89111328 125.00292969 C-347.69665958 113.45096052 -347.69665958 113.45096052 -341 101 C-346.53126692 101 -352.46123459 102.66118697 -356.57470703 106.45068359 Z M-303 168 C-304.0209375 168.70640625 -305.041875 169.4128125 -306.09375 170.140625 C-313.29821068 175.14065093 -320.29156728 180.43518862 -327.28344727 185.72631836 C-331.88406356 189.19930484 -336.56537928 192.51526722 -341.375 195.6953125 C-341.91125 196.12585938 -342.4475 196.55640625 -343 197 C-343 197.66 -343 198.32 -343 199 C-343.54527344 199.24621094 -344.09054687 199.49242187 -344.65234375 199.74609375 C-355.25818017 205.4107751 -365.03776086 214.53610972 -373.9375 222.5 C-378.12984668 226.22460553 -382.63285694 229.49620281 -387.16796875 232.7890625 C-390.02445552 235.01909217 -392.47134087 237.40792622 -395 240 C-396.88460182 241.76208967 -398.78053425 243.51213762 -400.6875 245.25 C-401.64011719 246.12140625 -402.59273437 246.9928125 -403.57421875 247.890625 C-406 250 -406 250 -408 251 C-408 251.66 -408 252.32 -408 253 C-408.556875 253.2475 -409.11375 253.495 -409.6875 253.75 C-413.55701002 255.84162704 -417.11809266 258.66305466 -420 262 C-420 262.66 -420 263.32 -420 264 C-420.56912109 264.2475 -421.13824219 264.495 -421.72460938 264.75 C-426.3134417 267.2709036 -429.80138305 271.34601191 -433.5 275 C-434.78197266 276.22009766 -434.78197266 276.22009766 -436.08984375 277.46484375 C-441.58968587 282.8960451 -444.73086422 287.62728809 -447 295 C-447.40863281 296.1034375 -447.81726563 297.206875 -448.23828125 298.34375 C-452.11749288 309.74157908 -455.16814567 321.35820799 -458.21289062 333.00244141 C-458.88478227 335.56121486 -459.57123741 338.11524061 -460.265625 340.66796875 C-464.07947136 354.91997985 -467.29154477 371.31225776 -464 386 C-462.0757881 388.30831658 -462.0757881 388.30831658 -458.75 388.5625 C-447.42205576 388.23474754 -435.66536328 378.37316583 -427 372 C-425.45119141 370.86498047 -425.45119141 370.86498047 -423.87109375 369.70703125 C-420.89315981 367.49735102 -417.94096658 365.25859848 -415 363 C-414.01902344 362.24976563 -413.03804687 361.49953125 -412.02734375 360.7265625 C-411.11082031 360.01242187 -410.19429687 359.29828125 -409.25 358.5625 C-408.02023437 357.60537109 -408.02023437 357.60537109 -406.765625 356.62890625 C-406.18296875 356.09136719 -405.6003125 355.55382812 -405 355 C-405 354.34 -405 353.68 -405 353 C-404.44828125 352.7525 -403.8965625 352.505 -403.328125 352.25 C-400.54863293 350.75765526 -398.2185293 348.96327477 -395.75 347 C-394.85796875 346.29875 -393.9659375 345.5975 -393.046875 344.875 C-392.37140625 344.25625 -391.6959375 343.6375 -391 343 C-391 342.34 -391 341.68 -391 341 C-390.46375 340.78214844 -389.9275 340.56429687 -389.375 340.33984375 C-386.16305838 338.52784379 -383.65585906 336.08552646 -381 333.5625 C-379.8414408 332.47624781 -378.68257966 331.39031759 -377.5234375 330.3046875 C-376.93788086 329.75393555 -376.35232422 329.20318359 -375.74902344 328.63574219 C-373.06550974 326.12603507 -370.34335237 323.65932025 -367.625 321.1875 C-363.82392823 317.72087836 -360.12858753 314.17781573 -356.53515625 310.49609375 C-354.9495089 308.95079366 -353.29040322 307.57062439 -351.5625 306.1875 C-350.716875 305.465625 -349.87125 304.74375 -349 304 C-349 303.34 -349 302.68 -349 302 C-348.01 301.67 -347.02 301.34 -346 301 C-344.50884665 299.52904089 -344.50884665 299.52904089 -343.03515625 297.66015625 C-340.00613593 294.09009737 -336.81868913 290.72900647 -333.49609375 287.43359375 C-333.00589752 286.94670074 -332.51570129 286.45980774 -332.01065063 285.9581604 C-330.48822198 284.44928169 -328.96331138 282.94295753 -327.4375 281.4375 C-318.32425529 272.58046915 -318.32425529 272.58046915 -310 263 C-310 262.34 -310 261.68 -310 261 C-309.34 261 -308.68 261 -308 261 C-306.62508701 259.49212839 -305.32635538 257.91460239 -304.0625 256.3125 C-301.54556742 253.15628263 -299.03788936 250.01365692 -296.3828125 246.97265625 C-288.9277466 238.42710317 -282.32906167 229.40651635 -276 220 C-275.60651367 219.41718262 -275.21302734 218.83436523 -274.80761719 218.23388672 C-267.08044249 206.65000551 -257.54516619 191.43476565 -260.41796875 176.8828125 C-261.9948824 172.42922606 -264.982502 169.32502012 -269 167 C-280.04225393 162.03718925 -293.08299451 160.52918919 -303 168 Z M-394.125 171.8125 C-395.03507813 172.52019531 -395.94515625 173.22789062 -396.8828125 173.95703125 C-397.58148438 174.63121094 -398.28015625 175.30539063 -399 176 C-399 176.99 -399 177.98 -399 179 C-393.18619408 176.15009514 -390.46941158 173.46695158 -387 168 C-390.13776578 168 -391.70747129 169.90120594 -394.125 171.8125 Z M-335.75 169.75 C-340.65661281 171.32186261 -345.53894286 172.60990193 -350.5625 173.75 C-376.29586416 179.81070464 -388.28074587 191.41031755 -403.44140625 212.1484375 C-406.67270435 216.56579769 -409.95335553 220.94381531 -413.25 225.3125 C-417.04785532 230.36162817 -420.80869469 235.43484347 -424.5 240.5625 C-424.89735352 241.11010986 -425.29470703 241.65771973 -425.70410156 242.22192383 C-428.42253025 246.02527811 -430.86474375 249.84531509 -433 254 C-432.67 254.66 -432.34 255.32 -432 256 C-429.95880212 254.38405168 -427.95927063 252.7143618 -426 251 C-426 250.34 -426 249.68 -426 249 C-425.443125 248.7525 -424.88625 248.505 -424.3125 248.25 C-421.57589087 246.77075182 -419.32349131 245.06532561 -417 243 C-417 242.34 -417 241.68 -417 241 C-416.17242187 240.65001953 -416.17242187 240.65001953 -415.328125 240.29296875 C-412.38744733 238.65980716 -410.20922749 236.60660793 -407.75 234.3125 C-406.76609442 233.40313767 -405.78171713 232.49428546 -404.796875 231.5859375 C-403.87390625 230.73257813 -402.9509375 229.87921875 -402 229 C-394.59776758 222.33799082 -387.03011841 215.70171587 -378.8125 210.0625 C-377.4203125 209.0415625 -377.4203125 209.0415625 -376 208 C-376 207.34 -376 206.68 -376 206 C-375.47019531 205.76925781 -374.94039062 205.53851563 -374.39453125 205.30078125 C-371.23673152 203.58536965 -368.50036168 201.40499765 -365.6875 199.1875 C-362.07740324 196.3646281 -358.47474007 193.5843257 -354.6875 191 C-353.3571875 190.01 -353.3571875 190.01 -352 189 C-352 188.34 -352 187.68 -352 187 C-351.42113037 186.72454346 -350.84226074 186.44908691 -350.24584961 186.1652832 C-346.44913244 184.1953157 -343.05126279 181.65138286 -339.5625 179.1875 C-338.81162109 178.66607422 -338.06074219 178.14464844 -337.28710938 177.60742188 C-333.13421114 174.68176534 -329.46061967 171.72205813 -326 168 C-329.86388415 168 -332.13204558 168.5562587 -335.75 169.75 Z " fill="#FCFCFC" transform="translate(559,5)"/>
</svg>
